<svg width="24" height="24" viewBox="0 0 24 24" fill="none" xmlns="http://www.w3.org/2000/svg">
<path d="M24 3.92578C24 4.44141 23.9023 4.94141 23.707 5.42578C23.5117 5.91016 23.2266 6.33984 22.8516 6.71484L7.41797 22.1484L0 24L1.85156 16.582L17.2852 1.14844C17.6602 0.773438 18.0898 0.488281 18.5742 0.292969C19.0586 0.0976563 19.5586 0 20.0742 0C20.6133 0 21.1211 0.101562 21.5977 0.304688C22.0742 0.507812 22.4883 0.789062 22.8398 1.14844C23.1914 1.50781 23.4727 1.92578 23.6836 2.40234C23.8945 2.87891 24 3.38672 24 3.92578ZM3.82031 16.7344C4.64844 17.0078 5.35938 17.4414 5.95312 18.0352C6.54688 18.6289 6.98438 19.3438 7.26562 20.1797L19.9336 7.5L16.5 4.06641L3.82031 16.7344ZM2.0625 21.9375L5.91797 20.9766C5.83984 20.6172 5.71484 20.2773 5.54297 19.957C5.37109 19.6367 5.15625 19.3516 4.89844 19.1016C4.64062 18.8516 4.35547 18.6406 4.04297 18.4688C3.73047 18.2969 3.39062 18.168 3.02344 18.082L2.0625 21.9375ZM21 6.43359C21.1953 6.23828 21.3828 6.05469 21.5625 5.88281C21.7422 5.71094 21.9023 5.53125 22.043 5.34375C22.1836 5.15625 22.293 4.94922 22.3711 4.72266C22.4492 4.49609 22.4922 4.23438 22.5 3.9375C22.5 3.60156 22.4375 3.28906 22.3125 3C22.1875 2.71094 22.0117 2.45312 21.7852 2.22656C21.5586 2 21.3008 1.82422 21.0117 1.69922C20.7227 1.57422 20.4062 1.50781 20.0625 1.5C19.7656 1.5 19.5078 1.53906 19.2891 1.61719C19.0703 1.69531 18.8633 1.80859 18.668 1.95703C18.4727 2.10547 18.2891 2.26562 18.1172 2.4375C17.9453 2.60938 17.7617 2.79688 17.5664 3L21 6.43359Z" fill="white"/>
</svg>
