<svg width="100" height="49" viewBox="0 0 100 49" fill="none" xmlns="http://www.w3.org/2000/svg">
<g clip-path="url(#clip0)">
<path d="M99.9989 29.769C99.998 24.3874 97.8633 19.2263 94.0641 15.4204C90.265 11.6145 85.1123 9.47519 79.7387 9.47278C76.7748 9.47011 73.8466 10.1199 71.1613 11.3763C68.476 12.6326 66.0992 14.4647 64.1993 16.7429C62.299 14.4651 59.9222 12.6332 57.237 11.3769C54.5517 10.1206 51.6237 9.47058 48.6599 9.47278H39.191V0H29.7313V9.47278H20.2715C14.8962 9.47278 9.74089 11.6109 5.9394 15.4171C2.13791 19.2232 0.00150385 24.3856 0 29.769H0V29.7747V48.7179H9.45975V29.7747C9.45975 26.9029 10.5988 24.1488 12.6265 22.1181C14.6541 20.0875 17.4041 18.9467 20.2715 18.9467H29.7313V28.4149C29.7311 31.0811 30.2554 33.7212 31.274 36.1845C32.2927 38.6477 33.7859 40.8859 35.6683 42.7713C37.5507 44.6566 39.7855 46.1521 42.245 47.1725C44.7045 48.1928 47.3406 48.7179 50.0028 48.7179V39.2429C47.1356 39.2429 44.3857 38.1023 42.3581 36.0719C40.3306 34.0415 39.1913 31.2876 39.191 28.4161V18.9478H48.6497C51.5171 18.9478 54.2672 20.0886 56.2948 22.1193C58.3224 24.1499 59.4614 26.904 59.4614 29.7758V48.7179H68.9212V29.7747C68.9212 26.9035 70.0601 24.15 72.0872 22.1197C74.1144 20.0895 76.8639 18.949 79.7307 18.949C82.5976 18.949 85.347 20.0895 87.3742 22.1197C89.4014 24.15 90.5402 26.9035 90.5402 29.7747V48.7179H100V29.769H99.9989Z" fill="#020202"/>
<path d="M19.5354 26.9938C20.2466 26.583 21.0532 26.3667 21.8742 26.3667C22.6953 26.3667 23.5019 26.583 24.2131 26.9938C24.1669 25.7823 23.6539 24.6358 22.7817 23.795C21.9095 22.9541 20.746 22.4844 19.5354 22.4844C18.3248 22.4844 17.1612 22.9541 16.289 23.795C15.4168 24.6358 14.9038 25.7823 14.8577 26.9938C15.5689 26.583 16.3755 26.3667 17.1965 26.3667C18.0176 26.3667 18.8242 26.583 19.5354 26.9938Z" fill="#FFDA00"/>
<path d="M17.1988 31.2322C16.4865 30.8206 15.8952 30.2283 15.4844 29.5149C15.0736 28.8016 14.8578 27.9924 14.8588 27.1688C14.8588 27.1098 14.8588 27.0553 14.8588 26.9916C13.7832 27.6129 12.998 28.6366 12.6761 29.8376C12.5167 30.4322 12.4758 31.0525 12.5557 31.663C12.6357 32.2735 12.8349 32.8622 13.1421 33.3956C13.4492 33.929 13.8583 34.3966 14.3458 34.7716C14.8334 35.1467 15.39 35.4219 15.9837 35.5816C17.1829 35.904 18.4609 35.7361 19.5365 35.1149C18.8505 34.7188 18.2762 34.1547 17.8674 33.4756C17.4585 32.7965 17.2284 32.0246 17.1988 31.2322Z" fill="#FF036A"/>
<path d="M17.1988 31.2321C17.1988 31.173 17.1988 31.1185 17.1988 31.0549C17.1984 30.2317 17.4146 29.4229 17.8256 28.7099C18.2366 27.997 18.8279 27.4051 19.5399 26.9938C18.8287 26.583 18.0221 26.3667 17.201 26.3667C16.38 26.3667 15.5734 26.583 14.8622 26.9938C14.8622 27.0529 14.8622 27.1074 14.8622 27.171C14.8613 27.9938 15.0767 28.8023 15.4869 29.5152C15.8971 30.2281 16.4875 30.8203 17.1988 31.2321Z" fill="#FF0000"/>
<path d="M24.2131 26.9916C24.2131 27.0507 24.2131 27.1052 24.2131 27.1688C24.2133 27.9929 23.9966 28.8024 23.5847 29.5158C23.1729 30.2291 22.5806 30.8212 21.8675 31.2322C21.8377 32.0245 21.6077 32.7962 21.1991 33.4753C20.7904 34.1543 20.2165 34.7185 19.5309 35.1149C20.0635 35.4225 20.6513 35.622 21.2609 35.7021C21.8705 35.7822 22.4898 35.7412 23.0836 35.5816C23.6774 35.4219 24.234 35.1467 24.7215 34.7716C25.2091 34.3966 25.6181 33.929 25.9253 33.3956C26.2324 32.8622 26.4317 32.2735 26.5116 31.663C26.5916 31.0525 26.5507 30.4322 26.3913 29.8376C26.2318 29.2429 25.957 28.6855 25.5825 28.1972C25.208 27.7089 24.7412 27.2992 24.2086 26.9916H24.2131Z" fill="#036FEF"/>
<path d="M19.5355 26.9938C20.2476 27.4051 20.8388 27.997 21.2498 28.7099C21.6608 29.4228 21.877 30.2316 21.8766 31.0548C21.8766 31.1139 21.8766 31.1684 21.8766 31.232C22.5898 30.821 23.1821 30.229 23.5939 29.5156C24.0057 28.8022 24.2225 27.9927 24.2223 27.1687C24.2223 27.1096 24.2223 27.0551 24.2223 26.9915C23.5111 26.5806 22.7045 26.3644 21.8834 26.3644C21.0624 26.3644 20.2558 26.5806 19.5446 26.9915L19.5355 26.9938Z" fill="#026018"/>
<path d="M21.872 31.2321C21.1616 31.6429 20.3557 31.8591 19.5354 31.8591C18.7151 31.8591 17.9093 31.6429 17.1989 31.2321C17.2284 32.0244 17.4583 32.7963 17.867 33.4754C18.2756 34.1545 18.8497 34.7186 19.5354 35.1148C20.221 34.7184 20.795 34.1543 21.2036 33.4752C21.6123 32.7962 21.8422 32.0244 21.872 31.2321Z" fill="#0235C4"/>
<path d="M19.5353 26.9938C18.8233 27.4051 18.232 27.997 17.821 28.71C17.4101 29.4229 17.1939 30.2317 17.1942 31.0549C17.1942 31.114 17.1942 31.1685 17.1942 31.2321C17.9046 31.6429 18.7105 31.8591 19.5308 31.8591C20.3511 31.8591 21.157 31.6429 21.8674 31.2321C21.8674 31.173 21.8674 31.1185 21.8674 31.0549C21.8687 30.2326 21.6538 29.4244 21.2445 28.7115C20.8351 27.9987 20.2457 27.4063 19.5353 26.9938Z" fill="#050505"/>
</g>
<defs>
<clipPath id="clip0">
<rect width="100" height="48.7179" fill="white"/>
</clipPath>
</defs>
</svg>
