<svg width="267" height="130" viewBox="0 0 267 130" fill="none" xmlns="http://www.w3.org/2000/svg">
<path d="M266.997 79.4362C266.995 65.0757 261.295 51.3039 251.151 41.1481C241.007 30.9923 227.25 25.2838 212.902 25.2774V25.2774C204.989 25.2702 197.17 27.0043 190.001 30.3567C182.831 33.7091 176.485 38.5979 171.412 44.6772C166.338 38.5989 159.992 33.7107 152.823 30.3584C145.653 27.0061 137.835 25.2715 129.922 25.2774H104.64V0H79.3826V25.2774H54.125C39.7728 25.2774 26.0082 30.9829 15.8582 41.1392C5.70823 51.2955 0.00401528 65.071 0 79.4362H0V79.4513V130H25.2575V79.4513C25.2575 71.7883 28.2989 64.4391 33.7126 59.0205C39.1263 53.6019 46.4689 50.5577 54.125 50.5577H79.3826V75.823C79.3822 82.9375 80.7818 89.9824 83.5017 96.5554C86.2216 103.128 90.2083 109.101 95.2343 114.132C100.26 119.163 106.227 123.153 112.794 125.876C119.361 128.599 126.4 130 133.508 130V130V104.717C125.852 104.717 118.51 101.673 113.096 96.2549C107.683 90.837 104.641 83.4885 104.64 75.826V75.826V50.5608H129.895C137.551 50.5608 144.893 53.6049 150.307 59.0235C155.721 64.4421 158.762 71.7913 158.762 79.4544V79.4544V130H184.02V79.4513C184.02 71.7899 187.06 64.4422 192.473 59.0248C197.885 53.6073 205.227 50.5638 212.881 50.5638C220.536 50.5638 227.877 53.6073 233.289 59.0248C238.702 64.4422 241.742 71.7899 241.742 79.4513V79.4513V130H267V79.4362H266.997Z" fill="#020202"/>
<path d="M52.1595 72.0309C54.0584 70.9346 56.2121 70.3575 58.4042 70.3575C60.5964 70.3575 62.75 70.9346 64.649 72.0309C64.5257 68.798 63.156 65.7386 60.8272 63.4949C58.4985 61.2513 55.3918 59.9979 52.1595 59.9979C48.9272 59.9979 45.8206 61.2513 43.4918 63.4949C41.163 65.7386 39.7933 68.798 39.67 72.0309C41.569 70.9346 43.7226 70.3575 45.9148 70.3575C48.1069 70.3575 50.2606 70.9346 52.1595 72.0309V72.0309Z" fill="#FFDA00"/>
<path d="M45.9207 83.3406C44.0191 82.2424 42.4402 80.6618 41.3434 78.7583C40.2465 76.8547 39.6703 74.6954 39.673 72.4979C39.673 72.3403 39.673 72.1948 39.673 72.025C36.8011 73.6827 34.7048 76.4144 33.8452 79.6191C33.4196 81.2059 33.3104 82.8611 33.5239 84.4902C33.7373 86.1192 34.2693 87.6903 35.0894 89.1135C35.9094 90.5368 37.0016 91.7845 38.3034 92.7853C39.6052 93.7862 41.0912 94.5206 42.6766 94.9466C45.8784 95.807 49.2906 95.359 52.1624 93.7013C50.331 92.6443 48.7976 91.1392 47.7059 89.3271C46.6142 87.515 46 85.4551 45.9207 83.3406V83.3406Z" fill="#FF036A"/>
<path d="M45.9207 83.3403C45.9207 83.1827 45.9207 83.0372 45.9207 82.8674C45.9197 80.6708 46.497 78.5126 47.5943 76.6102C48.6917 74.7078 50.2704 73.1283 52.1715 72.0308C50.2725 70.9345 48.1189 70.3574 45.9267 70.3574C43.7346 70.3574 41.581 70.9345 39.682 72.0308C39.682 72.1884 39.682 72.3339 39.682 72.5037C39.6795 74.6992 40.2548 76.8567 41.35 78.759C42.4452 80.6614 44.0216 82.2415 45.9207 83.3403V83.3403Z" fill="#FF0000"/>
<path d="M64.649 72.025C64.649 72.1826 64.649 72.3281 64.649 72.4979C64.6495 74.6967 64.0708 76.8568 62.9712 78.7604C61.8717 80.664 60.2902 82.2438 58.3861 83.3406C58.3066 85.4547 57.6926 87.5141 56.6015 89.3261C55.5105 91.1381 53.978 92.6434 52.1475 93.7013C53.5695 94.5221 55.1391 95.0545 56.7666 95.2682C58.3942 95.4819 60.0479 95.3726 61.6333 94.9466C63.2187 94.5206 64.7047 93.7862 66.0065 92.7853C67.3083 91.7845 68.4004 90.5368 69.2205 89.1135C70.0406 87.6902 70.5725 86.1192 70.786 84.4902C70.9995 82.8611 70.8903 81.2059 70.4646 79.6191C70.039 78.0323 69.3053 76.5449 68.3054 75.2419C67.3054 73.9389 66.0589 72.8458 64.6369 72.025H64.649Z" fill="#036FEF"/>
<path d="M52.1598 72.0307C54.0609 73.1282 55.6396 74.7077 56.7369 76.6101C57.8343 78.5125 58.4115 80.6706 58.4106 82.8673C58.4106 83.0249 58.4106 83.1704 58.4106 83.3402C60.3146 82.2434 61.8962 80.6636 62.9957 78.76C64.0953 76.8564 64.674 74.6963 64.6735 72.4975C64.6735 72.3399 64.6735 72.1944 64.6735 72.0246C62.7746 70.9284 60.6209 70.3513 58.4288 70.3513C56.2366 70.3513 54.083 70.9284 52.184 72.0246L52.1598 72.0307Z" fill="#026018"/>
<path d="M58.3982 83.3405C56.5014 84.4366 54.3498 85.0136 52.1596 85.0136C49.9693 85.0136 47.8177 84.4366 45.9209 83.3405C45.9998 85.4547 46.6136 87.5143 47.7047 89.3264C48.7959 91.1385 50.3287 92.6437 52.1596 93.7012C53.9901 92.6433 55.5226 91.138 56.6137 89.326C57.7047 87.514 58.3187 85.4546 58.3982 83.3405V83.3405Z" fill="#0235C4"/>
<path d="M52.1594 72.0309C50.2582 73.1285 48.6795 74.7079 47.5822 76.6103C46.4849 78.5127 45.9076 80.6709 45.9086 82.8675C45.9086 83.0252 45.9086 83.1706 45.9086 83.3404C47.8054 84.4365 49.957 85.0135 52.1472 85.0135C54.3375 85.0135 56.4891 84.4365 58.3859 83.3404C58.3859 83.1828 58.3859 83.0373 58.3859 82.8675C58.3893 80.6732 57.8157 78.5167 56.7228 76.6145C55.6298 74.7123 54.056 73.1316 52.1594 72.0309V72.0309Z" fill="#050505"/>
</svg>
